{
    "asset" : {
        "generator" : "Khronos glTF Blender I/O v1.8.19",
        "version" : "2.0"
    },
    "scene" : 0,
    "scenes" : [
        {
            "name" : "Scene",
            "nodes" : [
                0
            ]
        }
    ],
    "nodes" : [
        {
            "mesh" : 0,
            "name" : "Cube.001"
        }
    ],
    "meshes" : [
        {
            "name" : "Cube.005",
            "primitives" : [
                {
                    "attributes" : {
                        "POSITION" : 0,
                        "NORMAL" : 1,
                        "TEXCOORD_0" : 2
                    },
                    "indices" : 3
                }
            ]
        }
    ],
    "accessors" : [
        {
            "bufferView" : 0,
            "componentType" : 5126,
            "count" : 9242,
            "max" : [
                1.1106185913085938,
                1,
                1.1106185913085938
            ],
            "min" : [
                -1.1106185913085938,
                -1,
                -1.1106185913085938
            ],
            "type" : "VEC3"
        },
        {
            "bufferView" : 1,
            "componentType" : 5126,
            "count" : 9242,
            "type" : "VEC3"
        },
        {
            "bufferView" : 2,
            "componentType" : 5126,
            "count" : 9242,
            "type" : "VEC2"
        },
        {
            "bufferView" : 3,
            "componentType" : 5123,
            "count" : 44847,
            "type" : "SCALAR"
        }
    ],
    "bufferViews" : [
        {
            "buffer" : 0,
            "byteLength" : 110904,
            "byteOffset" : 0
        },
        {
            "buffer" : 0,
            "byteLength" : 110904,
            "byteOffset" : 110904
        },
        {
            "buffer" : 0,
            "byteLength" : 73936,
            "byteOffset" : 221808
        },
        {
            "buffer" : 0,
            "byteLength" : 89694,
            "byteOffset" : 295744
        }
    ],
    "buffers" : [
        {
            "byteLength" : 385440,
            "uri" : "data:application/octet-stream;base64,"
        }
    ]
}
